<svg xmlns="http://www.w3.org/2000/svg" width="109.523" height="40.573" viewBox="0 0 109.523 40.573"><g transform="translate(-2138.138 -2325.199)"><path class="a" d="M2183.4,2352.542l.487,1.087.823-.289c-.05-1.6.5-2.542,1.621-2.791,1.186-.263,2.09.277,2.7,1.63,1.026-.149,2.062-.291,3.094-.449a80.239,80.239,0,0,1,9.909-.982c3.235-.09,6.472-.208,9.708-.194a71.158,71.158,0,0,1,11.245,1.07,64.114,64.114,0,0,1,13.864,4.194,4.614,4.614,0,0,0,1.434.288c.737.047,1.479.012,2.255.012a1.686,1.686,0,0,1,1.471-1.25c.083-.01.159-.15.221-.241.154-.226.307-.453.439-.691a.807.807,0,0,0,.127-.41,2.19,2.19,0,1,1,4.362-.322c.009.119,0,.239,0,.389a2.69,2.69,0,0,1,2.038,1.64.424.424,0,0,0,.269.175c.28.076.566.126.863.19.771-.98,1.478-1.215,2.286-.745.731.426.892,1.175.47,2.232l4.979,1.076-.024.112c-1.012-.175-2.017-.41-3.037-.514-2.993-.3-5.988-.642-8.99-.812a109.387,109.387,0,0,0-14.709.23c-4.751.371-9.49.9-14.234,1.371a9.668,9.668,0,0,0-1.619.274c.415,0,.829,0,1.244,0,4.546.032,9.094.006,13.638.118a65.28,65.28,0,0,1,10.28.882,17.509,17.509,0,0,1,7.053,3.27c1.1.793,2.089,1.737,3.126,2.614a1.24,1.24,0,0,0,.435.285c-.077-.141-.147-.287-.232-.423q-1.339-2.146-2.68-4.29c-.525-.84-.352-1.22.608-1.456a28.724,28.724,0,0,1,9.157-.895,25.137,25.137,0,0,1,3.9.684,2.729,2.729,0,0,1,1.3.867,12.214,12.214,0,0,1,2.531,5.74c.093.453-.168.706-.7.737-1.856.11-3.713.209-5.57.314-2.286.13-4.574.246-6.858.4a1.219,1.219,0,0,1-1.108-.454,27.212,27.212,0,0,0-6.214-5.165,14.372,14.372,0,0,0-5.784-1.911,60.159,60.159,0,0,0-10.053-.263c-3.508.168-7.016.336-10.518.587-3.192.228-6.38.533-9.564.864-3.457.36-6.909.777-10.36,1.192-3.125.376-6.243.826-9.372,1.163-1.915.206-3.847.265-5.771.385-3.265.205-6.53.405-9.794.618a.635.635,0,0,0-.429.2,22.492,22.492,0,0,0-1.247,1.916,31.325,31.325,0,0,1,18.843.449c0,.048-.006.1-.008.144-.754-.094-1.507-.2-2.262-.28a42.356,42.356,0,0,0-15.225.785,28.915,28.915,0,0,0-11.05,5.486,1.909,1.909,0,0,1-.5.312,3.094,3.094,0,0,1,.2-.3,19.956,19.956,0,0,1,4.333-3.8c.95-.622.952-.618,1.165-1.782-.112-.031-.226-.057-.338-.093a.974.974,0,0,1-.73-1,1.08,1.08,0,0,1,.911-.91,1.956,1.956,0,0,0,1.465-.939c.389-.776.9-1.489,1.364-2.23-1.316-.823-1.756-1.927-1.2-3.037.585-1.179,1.729-1.517,3.168-.942a3.824,3.824,0,0,1,.336-1.034,3.5,3.5,0,0,1,.825-.66c-1.052-2.017-.811-3.7.718-4.816,1.494-1.085,3.191-.786,4.711.755.546-.109,1.022-.191,1.49-.306a.97.97,0,0,0,.41-.249,1.455,1.455,0,0,1,2-.142l-1.264-.193,1.657.857Zm51.615,3.794.012-.2a67.68,67.68,0,0,0-36.094-3.67c.445.267.821.458,1.16.7q3.918,2.815,7.817,5.656a.868.868,0,0,0,.8.17,95.736,95.736,0,0,1,17.2-2.35c2.9-.163,5.813-.182,8.719-.269C2234.76,2356.372,2234.888,2356.35,2235.017,2356.337Zm-52.445.718c.74.8,1.5,1.571,2.2,2.4s1.319,1.72,2,2.568a.624.624,0,0,0,.469.193c.685-.058,1.367-.156,2.05-.243q6.271-.809,12.542-1.619c.685-.089,1.368-.187,2.207-.3-.739-.86-1.336-1.639-2.019-2.335a12.236,12.236,0,0,0-7.37-3.706,15.608,15.608,0,0,0-5.933.452A22.476,22.476,0,0,0,2182.572,2357.055Zm77.373,9.534c.908-.032,2.56-.082,4.212-.15.936-.038,1.3-.615.928-1.459-.532-1.212-1.078-2.418-1.615-3.628a1.744,1.744,0,0,0-1.433-1.113c-.835-.115-1.663-.281-2.5-.381a11.262,11.262,0,0,0-3.38-.247c-1.9.34-3.8.628-5.7.936-.917.148-1.141.63-.632,1.392.842,1.259,1.7,2.51,2.537,3.769a2.318,2.318,0,0,0,2.144,1.094C2256.07,2366.744,2257.635,2366.68,2259.945,2366.589Zm-74.844-4.143c-.217-.405-.383-.743-.575-1.066a10.235,10.235,0,0,0-2.883-3.4.529.529,0,0,0-.645-.054,21.113,21.113,0,0,0-4.876,3.526c-.551.55-1.04,1.161-1.557,1.745l.093.114Zm-8.982-10.636a3.059,3.059,0,0,0-2.554,4.061C2174.046,2353.678,2174.466,2353,2176.119,2351.81Z" transform="translate(-21.637 -22.673)"/><path class="a" d="M2655.768,2542.526l-2.062,4.9c-1.294,3.073-2.585,6.148-3.893,9.216-.08.187-.29.441-.454.452-1.853.122-3.709.2-5.663.3l1.268-8.8-.074-.021q-.734,1.971-1.467,3.942c-.568,1.531-1.141,3.06-1.691,4.6a.582.582,0,0,1-.627.451c-1.789.07-3.576.174-5.475.272l1.382-14.328,3.882-.219c-.433,3.633-.86,7.212-1.287,10.8.421.185.506-.1.617-.378,1.337-3.353,2.69-6.7,4.007-10.059a.783.783,0,0,1,.859-.582c1.046-.018,2.09-.1,3.23-.162-.426,3.623-.846,7.2-1.265,10.767.408.18.5-.077.607-.347,1.335-3.354,2.682-6.7,4-10.062a.765.765,0,0,1,.808-.595C2653.536,2542.661,2654.6,2542.584,2655.768,2542.526Z" transform="translate(-446.082 -194.869)"/><path class="a" d="M2377.31,2576.431c.323-1.259.621-2.439.927-3.618.89-3.428,1.792-6.853,2.666-10.284a.678.678,0,0,1,.765-.608c1.669-.055,3.336-.182,5.005-.234a9.273,9.273,0,0,1,2,.147,2.123,2.123,0,0,1,1.788,2.54,23.581,23.581,0,0,1-.948,3.473,4.309,4.309,0,0,1-1.995,2.263c.425,1.881.847,3.752,1.279,5.671-.2.03-.343.063-.49.071-1.015.05-2.031.076-3.044.151-.383.028-.493-.11-.568-.46-.309-1.446-.665-2.882-.975-4.327-.071-.332-.175-.458-.534-.433-.788.055-.792.035-.979.817-.335,1.4-.659,2.812-1.014,4.212-.043.169-.237.416-.377.427C2379.684,2576.329,2378.55,2576.37,2377.31,2576.431Zm5.68-8.017c.632-.049,1.166-.052,1.686-.14a1.991,1.991,0,0,0,1.815-2.321c-.042-.751-.385-1.109-1.133-1.112-.513,0-1.027.059-1.557.093Z" transform="translate(-214.457 -212.047)"/><path class="a" d="M3055.31,2538.024c.287-1.117.552-2.161.823-3.2.924-3.559,1.857-7.116,2.767-10.679.11-.429.272-.623.748-.625.976,0,1.951-.075,2.975-.122l-1.587,6.086,3.855-.183c.379-1.443.755-2.87,1.128-4.3.117-.449.245-.9.339-1.35.067-.328.2-.492.57-.5,1.028-.025,2.055-.1,3.127-.152-1.254,4.845-2.493,9.635-3.742,14.461l-3.58.188c.454-1.754.893-3.454,1.348-5.211-1.255.063-2.454.114-3.65.2-.11.008-.255.241-.3.393-.391,1.461-.773,2.924-1.133,4.393a.513.513,0,0,1-.589.466C3057.4,2537.906,3056.4,2537.973,3055.31,2538.024Z" transform="translate(-822.394 -177.359)"/><path class="a" d="M2938.321,2541.057c-.178,1.463.179,1.869,1.677,1.8a5.146,5.146,0,0,0,1.4-.287,1.131,1.131,0,0,0,.766-1.068,1,1,0,0,0-.679-1.053c-.961-.363-1.951-.65-2.918-1a5.937,5.937,0,0,1-1.345-.623,2.85,2.85,0,0,1-1.011-3.227c.482-2.454,2.138-3.716,4.435-4.267a10.876,10.876,0,0,1,4.1-.256,2.969,2.969,0,0,1,2,4.935.534.534,0,0,1-.312.222c-1.06.066-2.123.11-3.161.158a8.209,8.209,0,0,0,.34-1.25.819.819,0,0,0-.782-1.017,8.646,8.646,0,0,0-2.169.235,1.183,1.183,0,0,0-.84,1.186,1.072,1.072,0,0,0,.789,1.094c.56.212,1.145.359,1.723.521.413.116.835.2,1.249.315a2.829,2.829,0,0,1,2.272,3.569,5.081,5.081,0,0,1-3.914,4.423,11.6,11.6,0,0,1-4.906.3c-2.04-.305-2.854-1.426-2.477-3.44.258-1.378,0-1.1,1.355-1.206.772-.058,1.546-.078,2.32-.113C2938.258,2541.013,2938.29,2541.042,2938.321,2541.057Z" transform="translate(-714.036 -184.523)"/><path class="a" d="M2258.916,2567.184c-.387,4.745-.773,9.47-1.164,14.257l-3.75.211.368-3.131c-1.076.064-2.114.116-3.149.2-.108.009-.232.221-.29.363-.331.812-.631,1.635-.972,2.442a.636.636,0,0,1-.41.36c-1.132.079-2.266.116-3.466.169.067-.183.11-.32.167-.451q2.973-6.857,5.942-13.716a.622.622,0,0,1,.637-.448c1.651-.065,3.3-.173,4.949-.257C2258.133,2567.168,2258.491,2567.184,2258.916,2567.184Zm-3.551,3.612c-.2,0-.332.007-.467,0a.939.939,0,0,0-1.074.758c-.4,1.2-.9,2.376-1.363,3.562l-.339.875,2.588-.159Z" transform="translate(-96.789 -216.973)"/><path class="a" d="M2809.444,2549.26c-1.059,0-2.053-.013-3.047.016-.127,0-.3.2-.362.343-.341.826-.645,1.667-.986,2.493a.582.582,0,0,1-.365.334c-1.149.09-2.3.145-3.513.214.063-.173.105-.31.162-.44q2.973-6.861,5.943-13.722a.637.637,0,0,1,.637-.463c1.927-.079,3.852-.185,5.778-.28.081,0,.164.01.315.019-.388,4.76-.774,9.487-1.163,14.257l-3.754.219Zm.357-2.834c.219-1.683.434-3.337.655-5.028a4.376,4.376,0,0,1-.463,0c-.58-.069-.873.168-1.071.74-.459,1.326-1.008,2.622-1.519,3.93-.057.147-.107.3-.179.5Z" transform="translate(-594.517 -190.59)"/><path class="a" d="M2516.7,2553l-.8,3.057c-1.207.069-2.406.14-3.607.205-.808.044-1.616.073-2.424.126-.131.009-.345.084-.37.172-.234.819-.436,1.646-.666,2.548l5.256-.271c-.265,1.024-.5,2-.784,2.958-.031.105-.3.19-.464.2-1.46.09-2.921.175-4.383.227-.36.013-.511.13-.581.476-.123.6-.291,1.2-.465,1.9l6.361-.326c-.259,1-.491,1.953-.762,2.891a.537.537,0,0,1-.41.26c-2.784.156-5.569.293-8.354.434-.392.02-.783.042-1.227.065.429-1.662.842-3.273,1.26-4.883q1.18-4.541,2.363-9.081c.069-.265.1-.5.493-.521,3.112-.143,6.223-.311,9.335-.47A1.506,1.506,0,0,1,2516.7,2553Z" transform="translate(-327.179 -204.224)"/><path class="a" d="M2146.369,2580.437a17.394,17.394,0,0,0,.6-1.977c.223-1.222-.365-1.806-1.592-1.663a2.439,2.439,0,0,0-2.153,1.889c-.5,1.732-.933,3.485-1.332,5.244-.228,1.005.244,1.5,1.277,1.485a2.373,2.373,0,0,0,2.416-1.8.636.636,0,0,1,.7-.493c.929-.018,1.857-.076,2.785-.116a1.4,1.4,0,0,1,.2.029,6.145,6.145,0,0,1-2.289,4.008,8.23,8.23,0,0,1-7.124,1.217,2.2,2.2,0,0,1-1.73-2.284,10.307,10.307,0,0,1,.254-2.294c.377-1.623.829-3.228,1.264-4.836a6.577,6.577,0,0,1,6.232-5.125,9.574,9.574,0,0,1,2.556.089,2.755,2.755,0,0,1,2.346,3.411,14.726,14.726,0,0,1-.96,2.751.64.64,0,0,1-.466.312C2148.354,2580.356,2147.34,2580.391,2146.369,2580.437Z" transform="translate(0 -222.8)"/><path class="a" d="M2917.284,2463.008a6.089,6.089,0,0,1,4.932,3.169c.5,1.159.067,1.982-1.175,2.164a4.649,4.649,0,0,1-3.078-.819,5.4,5.4,0,0,1-2.13-2.12C2915.138,2464.066,2915.778,2463.015,2917.284,2463.008Z" transform="translate(-697.079 -123.569)"/><path class="a" d="M2844,2467.3a5.668,5.668,0,0,1,4.182,2.184c.939,1.245.459,2.419-1.069,2.672a3.685,3.685,0,0,1-1.224-.034,5.374,5.374,0,0,1-3.482-2.01,2.939,2.939,0,0,1-.372-.614,1.383,1.383,0,0,1,.924-2.028A6.666,6.666,0,0,1,2844,2467.3Z" transform="translate(-631.016 -127.415)"/><path class="a" d="M2955.751,2465.138a4,4,0,0,1,3.374,3.108,1.542,1.542,0,0,1-.515,1.487,2.822,2.822,0,0,0-1.158-3.384C2956.932,2465.931,2956.366,2465.573,2955.751,2465.138Z" transform="translate(-733.124 -125.478)"/><path class="a" d="M2886.177,2472.847a2.449,2.449,0,0,0-.694-3c-.623-.5-1.327-.908-1.953-1.328a3.805,3.805,0,0,1,3.133,2.242A1.793,1.793,0,0,1,2886.177,2472.847Z" transform="translate(-668.366 -128.512)"/><path class="a" d="M3056.527,2345.2l.846-.648c-.72.993-.262,1.726.274,2.451a.454.454,0,0,1,.087.35c-.285-.367-.593-.719-.85-1.1-.214-.321-.425-.4-.751-.171a5.522,5.522,0,0,1-.662.326l.77-1.012-1.341-2.153.091-.068Z" transform="translate(-822.027 -16.118)"/><path class="a" d="M2235.536,2355.669a.745.745,0,0,1-.015,1.491.733.733,0,0,1-.736-.755A.721.721,0,0,1,2235.536,2355.669Z" transform="translate(-86.659 -27.322)"/><path class="a" d="M3005.915,2373.947a.682.682,0,1,1,.043,1.363.692.692,0,0,1-.716-.658A.7.7,0,0,1,3005.915,2373.947Z" transform="translate(-777.499 -43.71)"/><path class="a" d="M2907.355,2369.366c-.528-.07-.735-.267-.711-.633a.528.528,0,0,1,.565-.539.508.508,0,0,1,.559.583C2907.729,2369.014,2907.468,2369.215,2907.355,2369.366Z" transform="translate(-689.09 -38.552)"/><path class="a" d="M2379.569,2338.758c-.142-.213-.37-.414-.4-.643a.437.437,0,0,1,.543-.505.76.76,0,0,1,.5.509c.01.206-.255.426-.4.639Z" transform="translate(-216.114 -11.117)"/><path class="a" d="M2438.9,2325.211c.13.221.345.433.369.665a.444.444,0,0,1-.563.49.749.749,0,0,1-.464-.541c0-.208.265-.417.416-.626Z" transform="translate(-269.091)"/><path class="a" d="M3068.137,2392.137c-.344.216-.557.457-.725.428a.657.657,0,0,1-.427-.49.65.65,0,0,1,.472-.44C3067.63,2391.626,3067.816,2391.885,3068.137,2392.137Z" transform="translate(-832.863 -59.571)"/></g></svg>